<svg version="1.1" id="Layer_1" xmlns="http://www.w3.org/2000/svg" xmlns:xlink="http://www.w3.org/1999/xlink" x="0px" y="0px" enable-background="new 0 0 200 200" xml:space="preserve" viewBox="56.15 55.97 88.65 87.75">
<path fill="#282828" d="M104.782,143.698c-22.1,0-40-18-40-40s18-40,40-40s40,18,40,40S126.882,143.698,104.782,143.698z   M104.782,67.698c-19.8,0-36,16.1-36,36c0,19.9,16.1,36,36,36s36-16.1,36-36C140.782,83.798,124.682,67.698,104.782,67.698z"/>
<path fill="#282828" d="M126.882,109.498h-22c-1.1,0-1.6-0.8-1.6-1.9v-26c0-1.1,0.9-2,2-2c1.1,0,2,0.9,2,2v23.9h19.6  c1.1,0,2,0.9,2,2S127.982,109.498,126.882,109.498z"/>
<path fill="#282828" d="M58.182,85.598c-0.2,0-0.5,0-0.7-0.1c-1-0.4-1.6-1.5-1.2-2.6c4.6-12.2,12.8-21.4,23.7-26.7  c1-0.5,2.2-0.1,2.7,0.9s0.1,2.2-0.9,2.7c-10.1,4.8-17.6,13.3-21.7,24.5C59.782,85.098,58.982,85.598,58.182,85.598z"/>
</svg>