<?xml version="1.0" encoding="utf-8"?>
<!-- Generator: Adobe Illustrator 16.0.0, SVG Export Plug-In . SVG Version: 6.00 Build 0)  -->
<!DOCTYPE svg PUBLIC "-//W3C//DTD SVG 1.1//EN" "http://www.w3.org/Graphics/SVG/1.1/DTD/svg11.dtd">
<svg version="1.1" id="Layer_1" xmlns="http://www.w3.org/2000/svg" xmlns:xlink="http://www.w3.org/1999/xlink" x="0px" y="0px"
	 width="100.111px" height="127.715px" viewBox="0 0 100.111 127.715" enable-background="new 0 0 100.111 127.715"
	 xml:space="preserve">
<g>
	<rect x="13.57" y="49.628" fill="#231F20" width="33.854" height="3.592"/>
	<rect x="13.57" y="63.994" fill="#231F20" width="20.699" height="3.59"/>
	<rect x="13.57" y="78.362" fill="#231F20" width="12.558" height="3.594"/>
	<polygon fill="#231F20" points="67.262,73.393 62.175,73.393 62.175,89.777 45.867,89.777 45.867,94.863 62.175,94.863 
		62.175,111.248 67.262,111.248 67.262,94.863 83.572,94.863 83.572,89.777 67.262,89.777 	"/>
	<path fill="#231F20" d="M64.72,56.93c-19.517,0-35.394,15.877-35.394,35.393s15.877,35.393,35.394,35.393
		c19.516,0,35.392-15.877,35.392-35.393S84.235,56.93,64.72,56.93z M64.72,124.104c-17.524,0-31.785-14.258-31.785-31.781
		S47.195,60.539,64.72,60.539s31.783,14.26,31.783,31.783S82.246,124.104,64.72,124.104z"/>
	<path fill="#231F20" d="M4.468,112.461c-0.758,0-1.375-0.617-1.375-1.377V16.855c0-0.758,0.617-1.375,1.375-1.375h22.396
		c-4.004,3.121-7.048,7.418-8.566,12.385h1.578h1.701h41.16h1.701h1.578c-1.52-4.967-4.563-9.264-8.564-12.385h22.395
		c0.758,0,1.375,0.617,1.375,1.375V52.76c1.054,0.441,2.082,0.932,3.092,1.451V16.855c0-2.464-2.004-4.469-4.467-4.469H53.871
		c0.013-0.213,0.032-0.423,0.032-0.639c0-0.001,0-0.001,0-0.001C53.903,5.269,48.634,0,42.157,0C35.68,0,30.409,5.27,30.409,11.747
		c0,0,0,0,0,0.001c0,0.216,0.021,0.426,0.033,0.639H4.468C2.005,12.387,0,14.392,0,16.855v94.229c0,2.465,2.005,4.469,4.468,4.469
		h24.257c-0.65-1.002-1.266-2.033-1.83-3.092H4.468L4.468,112.461z M55.709,14.227c-0.614-0.396-1.239-0.781-1.889-1.125
		C54.468,13.445,55.097,13.826,55.709,14.227z M31.296,16.195c0.896-0.516,1.823-0.973,2.791-1.359
		c-0.371-0.958-0.582-1.996-0.584-3.083c0,0-0.001,0.001-0.002,0.001c0-0.001,0-0.002,0-0.003c0-0.063,0.008-0.123,0.01-0.188
		c0.063-2.927,1.584-5.501,3.865-7.021c0.013-0.008,0.024-0.017,0.037-0.023c0.217-0.142,0.438-0.275,0.666-0.397
		c0.029-0.018,0.062-0.028,0.091-0.046c0.216-0.11,0.434-0.22,0.657-0.313c0.034-0.015,0.071-0.025,0.105-0.039
		c0.225-0.09,0.449-0.175,0.682-0.246c0.032-0.01,0.065-0.016,0.102-0.024c0.235-0.07,0.476-0.136,0.722-0.185
		c0.004-0.001,0.008-0.002,0.012-0.002c0.553-0.111,1.124-0.17,1.708-0.17s1.155,0.059,1.708,0.17c0.004,0,0.008,0.001,0.012,0.002
		c0.245,0.049,0.484,0.113,0.722,0.185c0.032,0.01,0.067,0.016,0.101,0.024c0.23,0.07,0.455,0.155,0.678,0.245
		c0.035,0.015,0.074,0.025,0.11,0.04c0.226,0.095,0.445,0.203,0.663,0.315c0.025,0.015,0.057,0.024,0.084,0.041
		c0.229,0.124,0.45,0.258,0.668,0.399c0.012,0.008,0.022,0.016,0.036,0.022c2.28,1.521,3.802,4.095,3.862,7.021
		c0.002,0.063,0.011,0.123,0.011,0.188c0,0.001,0,0.001,0,0.001s0,0-0.001,0c0,0.006-0.001,0.011-0.001,0.016
		c0,0.001,0,0.002,0,0.002c-0.007,1.082-0.216,2.112-0.584,3.066c0.97,0.387,1.897,0.846,2.793,1.359
		c0.002-0.006,0.009-0.01,0.012-0.018c-0.005,0.012-0.007,0.021-0.014,0.035c3.507,2.023,6.39,5,8.323,8.563H22.976
		c1.935-3.563,4.816-6.537,8.321-8.561c-0.006-0.016-0.008-0.029-0.014-0.043C31.287,16.182,31.292,16.188,31.296,16.195z
		 M28.605,14.229c0.61-0.402,1.239-0.781,1.889-1.127C29.845,13.447,29.218,13.829,28.605,14.229z"/>
</g>
</svg>
