<?xml version="1.0" encoding="utf-8"?>
<!-- Generator: Adobe Illustrator 22.0.1, SVG Export Plug-In . SVG Version: 6.00 Build 0)  -->
<svg version="1.1" id="Layer_1" xmlns="http://www.w3.org/2000/svg" xmlns:xlink="http://www.w3.org/1999/xlink" x="0px" y="0px"
	 viewBox="0 0 154.6 128.2" style="enable-background:new 0 0 154.6 128.2;" xml:space="preserve">
<style type="text/css">
	.st0{fill:#231F20;}
</style>
<path class="st0" d="M154.3,19.7c-0.4-1-1.3-1.8-2.4-2.1L84.2,0.1c-1.8-0.4-3.5,0.5-4.2,2.1L68,31.6c-0.2,0.6-0.3,1.1-0.2,1.7
	l-9.3,2.2l-0.2-0.3c-0.4-0.5-0.9-0.9-1.4-1.1L5,11.1c-1.5-0.6-3.2-0.2-4.2,1c-1,1.2-1.1,3-0.2,4.3l18.4,26.2v49.6
	c0,1.2,0.6,2.4,1.7,3l52.6,32.4c0.6,0.4,1.2,0.5,1.9,0.5c0.4,0,0.9-0.1,1.3-0.2l57-21.8c1.4-0.5,2.3-1.9,2.3-3.3V53.9l18.3-31.1
	C154.7,21.9,154.8,20.7,154.3,19.7z M133.2,50c-0.3,0.6-0.5,1.3-0.5,2v50.9l-57,21.8L22.6,92V39.6c0-0.8-0.2-1.6-0.7-2.2l-17-22
	l48.3,21.1L66.8,57L33.2,41.7c-1.9-0.9-3-1.1-3.8,0.8c-0.9,1.9,0,4.2,1.9,5.1L72,66v45.8c0,2.1,1.2,3.8,3.3,3.8
	c2.1,0,3.3-1.7,3.3-3.8c0,0-0.3-48.5-0.3-48.8l54-11.8L72.7,29.6L83.5,2.7l67.3,17.4L133.2,50z"/>
</svg>
