<?xml version="1.0" encoding="utf-8"?>
<!-- Generator: Adobe Illustrator 16.0.0, SVG Export Plug-In . SVG Version: 6.00 Build 0)  -->
<!DOCTYPE svg PUBLIC "-//W3C//DTD SVG 1.1//EN" "http://www.w3.org/Graphics/SVG/1.1/DTD/svg11.dtd">
<svg version="1.1" id="Layer_1" xmlns="http://www.w3.org/2000/svg" xmlns:xlink="http://www.w3.org/1999/xlink" x="0px" y="0px"
	 width="26px" height="26px" viewBox="0 0 26 26" enable-background="new 0 0 26 26" xml:space="preserve">
<polygon stroke="#000000" stroke-width="0.5" stroke-miterlimit="10" points="13.286,12.895 18.169,6.809 17.579,6.809 13,12.576 
	8.417,6.826 8.403,6.809 7.831,6.809 12.696,12.895 7.655,19.189 8.245,19.189 13,13.212 17.771,19.189 18.346,19.189 "/>
<g>
	<path fill="none" stroke="#000000" stroke-miterlimit="10" d="M25.527,21.971c0,1.956-1.601,3.557-3.557,3.557H4.03
		c-1.956,0-3.557-1.601-3.557-3.557V4.03c0-1.956,1.601-3.557,3.557-3.557h17.941c1.956,0,3.557,1.601,3.557,3.557V21.971z"/>
</g>
</svg>
