<?xml version="1.0" ?><svg contentScriptType="text/ecmascript" contentStyleType="text/css" enable-background="new 0 0 2048 2048" height="2048px" id="Layer_1" preserveAspectRatio="xMidYMid meet" version="1.1" viewBox="-2.3330001831054688 0 901.666015625 2048" width="901.666015625px" xml:space="preserve" xmlns="http://www.w3.org/2000/svg" xmlns:xlink="http://www.w3.org/1999/xlink" zoomAndPan="magnify"><path d="M885,694c12,13.333,14.333,28,7,44L352,1895c-8.667,16.667-22.667,25-42,25c-2.667,0-7.333-0.667-14-2  c-11.333-3.333-19.833-9.667-25.5-19s-7.167-19.333-4.5-30l197-808L57,1162c-2.667,0.667-6.667,1-12,1c-12,0-22.333-3.667-31-11  c-12-10-16.333-23-13-39l201-825c2.667-9.333,8-17,16-23s17.333-9,28-9h328c12.667,0,23.333,4.167,32,12.5s13,18.167,13,29.5  c0,5.333-1.667,11.333-5,18L443,779l396-98c5.333-1.333,9.333-2,12-2C863.667,679,875,684,885,694z"/></svg>