<?xml version="1.0" encoding="utf-8"?>
<!-- Generator: Adobe Illustrator 16.0.0, SVG Export Plug-In . SVG Version: 6.00 Build 0)  -->
<!DOCTYPE svg PUBLIC "-//W3C//DTD SVG 1.1//EN" "http://www.w3.org/Graphics/SVG/1.1/DTD/svg11.dtd">
<svg version="1.1" id="Layer_1" xmlns="http://www.w3.org/2000/svg" xmlns:xlink="http://www.w3.org/1999/xlink" x="0px" y="0px"
	 width="26px" height="26px" viewBox="0 0 26 26" enable-background="new 0 0 26 26" xml:space="preserve">
<path fill="#231F20" d="M25.934,7.636H5.621L4.623,3.18H0.066v0.967h3.797l4.071,17.128c-1.005,0.293-1.744,1.21-1.744,2.31
	C6.19,24.918,7.272,26,8.607,26c1.334,0,2.416-1.082,2.416-2.416c0-0.547-0.188-1.045-0.494-1.45h6.787
	c-0.307,0.405-0.493,0.903-0.493,1.45c0,1.334,1.081,2.416,2.416,2.416s2.416-1.082,2.416-2.416c0-1.336-1.081-2.417-2.416-2.417
	l0,0H8.902l-0.469-1.933h13.568L25.934,7.636z M10.058,23.584c0,0.8-0.65,1.449-1.45,1.449s-1.45-0.649-1.45-1.449
	c0-0.799,0.65-1.45,1.45-1.45S10.058,22.785,10.058,23.584z M20.688,23.584c0,0.8-0.649,1.449-1.449,1.449s-1.45-0.649-1.45-1.449
	c0-0.799,0.651-1.45,1.45-1.45C20.039,22.134,20.688,22.785,20.688,23.584z M8.2,18.268L5.856,8.603h18.729l-3.276,9.665H8.2z"/>
</svg>
