<?xml version="1.0" encoding="utf-8"?>
<!-- Generator: Adobe Illustrator 16.0.0, SVG Export Plug-In . SVG Version: 6.00 Build 0)  -->
<!DOCTYPE svg PUBLIC "-//W3C//DTD SVG 1.1//EN" "http://www.w3.org/Graphics/SVG/1.1/DTD/svg11.dtd">
<svg version="1.1" id="Layer_1" xmlns="http://www.w3.org/2000/svg" xmlns:xlink="http://www.w3.org/1999/xlink" x="0px" y="0px"
	 width="26px" height="26px" viewBox="0 0 26 26" enable-background="new 0 0 26 26" xml:space="preserve">
<g>
	<path fill="#F1F2F2" d="M21.016,19.438c-0.715-1.354-3.992-2.373-6.127-2.908v-4.58h-3.778v4.58
		c-2.136,0.535-5.414,1.555-6.127,2.908c-1.014,2.575-1.465,6.443-1.465,6.443h9.48h9.481C22.48,25.882,21.813,22.275,21.016,19.438
		z"/>
	<path opacity="0.1" fill="#B6B6B6" d="M14.889,14.883c-0.34,0.977-1.711,1.537-2.718,1.537c-0.365,0-0.719-0.061-1.06-0.174V11.95
		h3.778V14.883z"/>
	<path fill="#F1F2F2" d="M17.619,6.542c-0.033-0.003-0.063-0.003-0.096-0.004c-0.457-3.068-2.412-4.784-4.755-4.784
		c-2.366,0-4.336,1.753-4.767,4.88C7.317,6.923,6.893,7.809,7.022,8.796c0.111,0.868,0.616,1.565,1.236,1.813
		c0.715,2.64,2.464,4.506,4.51,4.506c2.023,0,3.753-1.82,4.486-4.411c0.814-0.022,1.551-0.836,1.689-1.908
		C19.09,7.65,18.498,6.64,17.619,6.542z"/>
	<path fill="#939598" d="M15.297,13.388c0,0,2.094-1.709,1.629-3.962c-0.467-2.252-1.629-2.641-1.629-3.65
		c-1.939,2.33-3.646,3.961-6.748,3.106c-0.931,0.544,0.232,3.34,1.628,4.816C6.221,11.524,1.645,3.524,11.186,0.417
		C20.727-2.69,23.441,12.922,15.297,13.388z"/>
	<path fill="#F1F2F2" d="M13,4.206c-2.507,0-4.589,1.814-5.013,4.202C7.935,8.116,7.907,7.816,7.907,7.51
		c0-2.817,2.28-5.099,5.093-5.099c2.813,0,5.092,2.282,5.092,5.099c0,0.307-0.027,0.606-0.08,0.897
		C17.588,6.02,15.506,4.206,13,4.206z"/>
	<path fill="#F1F2F2" d="M20.994,19.334c-0.178-0.377-1.844-1.662-4.463-2.349c-0.367,1.62-1.992,2.746-3.532,2.754
		c-1.708,0.009-3.137-1.174-3.531-2.755c-2.441,0.768-4.147,1.733-4.401,2.325c-1.137,2.655-1.547,6.664-1.547,6.664H22.48
		C22.48,25.974,21.791,22.16,20.994,19.334z"/>
	<path fill="#939598" d="M12.934,19.731c1.746,0,3.23-1.134,3.767-2.704c-0.221-0.069-0.438-0.135-0.654-0.197
		c-0.449,1.288-1.674,2.216-3.113,2.216c-1.438,0-2.662-0.928-3.113-2.216c-0.215,0.062-0.434,0.128-0.654,0.197
		C9.703,18.598,11.188,19.731,12.934,19.731z"/>
	<path fill-rule="evenodd" clip-rule="evenodd" fill="#939598" d="M4.984,19.547c-0.46,1.039-1.113,3.503-1.465,6.445h4.609
		C8.128,20.079,7.463,20.014,4.984,19.547z"/>
	<path fill-rule="evenodd" clip-rule="evenodd" fill="#939598" d="M21,19.547c0.461,1.039,1.111,3.503,1.465,6.445h-4.609
		C17.855,20.079,18.52,20.014,21,19.547z"/>
</g>
</svg>
