<?xml version="1.0" encoding="utf-8"?>
<!-- Generator: Adobe Illustrator 16.0.0, SVG Export Plug-In . SVG Version: 6.00 Build 0)  -->
<!DOCTYPE svg PUBLIC "-//W3C//DTD SVG 1.1//EN" "http://www.w3.org/Graphics/SVG/1.1/DTD/svg11.dtd">
<svg version="1.1" id="Layer_1" xmlns="http://www.w3.org/2000/svg" xmlns:xlink="http://www.w3.org/1999/xlink" x="0px" y="0px"
	 width="26.014px" height="45.559px" viewBox="0 0 26.014 45.559" enable-background="new 0 0 26.014 45.559" xml:space="preserve">
<path fill="#F68520" d="M24.097,24.827c-1.123-1.268-2.973-1.967-5.199-1.967c-2.569,0-5.025,0.912-6.336,2.313
	c-1.417-1.543-3.261-2.386-5.244-2.386c-2.13,0-4.226,1.005-5.604,2.688c-1.499,1.829-2.04,4.256-1.523,6.834
	c0.842,4.213,6.469,8.252,10.192,10.927c1.158,0.83,2.156,1.546,2.612,2.001l0.323,0.32l0.318-0.326
	c0.554-0.566,1.447-1.319,2.481-2.19c3.785-3.186,9.509-8,9.875-13C26.133,28.16,25.493,26.405,24.097,24.827z"/>
<path fill="#FFFFFF" d="M18.104,28.379c0.198-0.143,0.322-0.235,0.366-0.279c0.043-0.044,0.065-0.09,0.071-0.143
	c0.009-0.081-0.039-0.127-0.146-0.139c-0.167-0.019-0.479-0.024-0.938-0.011c-0.459,0.013-1.523,0.443-2.28,1.293
	c-0.758,0.851-1.48,1.757-2.164,2.718c-0.684,0.967-1.333,2.159-1.949,3.212c-0.368-0.832-0.718-1.592-1.055-1.914
	c-0.338-0.318-0.632-0.492-0.884-0.521c-0.199-0.021-0.457,0.054-0.779,0.229c-0.322,0.178-0.493,0.365-0.516,0.57
	c-0.016,0.146,0.095,0.379,0.336,0.698c0.478,0.634,0.887,1.294,1.229,1.982c0.21,0.413,0.351,0.668,0.425,0.764
	c0.074,0.097,0.325,0.166,0.75,0.214c0.592,0.067,0.952,0.031,1.08-0.107c0.128-0.136,0.383-0.55,0.765-1.249
	c0.944-1.746,2.063-3.39,3.347-4.929C17.051,29.228,17.089,29.127,18.104,28.379z"/>
<g>
	<path d="M13.306,22.787l-0.322-0.319c-0.456-0.453-1.454-1.172-2.609-2.003C6.653,17.789,1.031,13.745,0.189,9.53
		c-0.515-2.58,0.025-5.01,1.521-6.841C3.089,1.005,5.182,0,7.31,0c1.981,0,3.823,0.844,5.238,2.389
		c1.311-1.401,3.764-2.313,6.329-2.313c2.229,0,4.073,0.698,5.192,1.967c1.396,1.58,2.037,3.336,1.897,5.218
		c-0.364,5.005-6.082,9.823-9.863,13.013c-1.036,0.871-1.93,1.625-2.481,2.19L13.306,22.787z M7.31,0.905
		c-1.861,0-3.693,0.882-4.9,2.359C1.087,4.881,0.613,7.043,1.074,9.353c0.772,3.867,6.439,7.94,9.826,10.376
		c1.007,0.726,1.841,1.325,2.39,1.796c0.574-0.546,1.354-1.205,2.234-1.946c3.668-3.091,9.209-7.762,9.547-12.385
		c0.121-1.653-0.426-3.143-1.673-4.552c-0.948-1.072-2.553-1.663-4.52-1.663c-2.508,0-4.957,0.976-5.956,2.375l-0.346,0.481
		l-0.372-0.461C10.924,1.781,9.186,0.905,7.31,0.905z"/>
</g>
</svg>
