<?xml version="1.0" encoding="utf-8"?>
<!-- Generator: Adobe Illustrator 16.0.0, SVG Export Plug-In . SVG Version: 6.00 Build 0)  -->
<!DOCTYPE svg PUBLIC "-//W3C//DTD SVG 1.1//EN" "http://www.w3.org/Graphics/SVG/1.1/DTD/svg11.dtd">
<svg version="1.1" id="Layer_1" xmlns="http://www.w3.org/2000/svg" xmlns:xlink="http://www.w3.org/1999/xlink" x="0px" y="0px"
	 width="127.835px" height="120.404px" viewBox="0 0 127.835 120.404" enable-background="new 0 0 127.835 120.404"
	 xml:space="preserve">
<g>
	<path fill="#FFFFFF" d="M117.231,0H10.604C4.756,0,0,4.76,0,10.605V84.42c0,5.853,4.758,10.607,10.604,10.607h64.438l19.015,24.449
		c0.459,0.592,1.162,0.928,1.896,0.928c0.129,0,0.256-0.01,0.385-0.031c0.867-0.141,1.592-0.742,1.885-1.569l8.402-23.773h10.604
		c5.849,0,10.604-4.758,10.604-10.607V10.607C127.835,4.758,123.08,0,117.231,0z M123.029,84.422c0,3.198-2.604,5.803-5.798,5.803
		h-12.306c-1.018,0-1.926,0.643-2.266,1.604l-7.51,21.23L78.114,91.151c-0.454-0.586-1.155-0.928-1.896-0.928H10.604
		c-3.197,0-5.799-2.604-5.799-5.803V10.606c0-3.197,2.603-5.798,5.799-5.798h106.627c3.194,0,5.798,2.601,5.798,5.798V84.422z"/>
	<path fill="#FFFFFF" d="M64.315,37.288c-4.957,0-8.978,4.025-8.978,8.979c0,4.955,4.021,8.977,8.978,8.977s8.979-4.021,8.979-8.977
		C73.294,41.313,69.272,37.288,64.315,37.288z"/>
	<path fill="#FFFFFF" d="M94.392,37.288c-4.953,0-8.979,4.025-8.979,8.979c0,4.955,4.022,8.977,8.979,8.977
		c4.957,0,8.979-4.021,8.979-8.977C103.371,41.313,99.349,37.288,94.392,37.288z"/>
	<path fill="#FFFFFF" d="M34.24,37.288c-4.957,0-8.979,4.025-8.979,8.979c0,4.955,4.021,8.977,8.979,8.977
		c4.954,0,8.977-4.021,8.977-8.977C43.217,41.313,39.195,37.288,34.24,37.288z"/>
</g>
</svg>
