<?xml version="1.0" encoding="utf-8"?>
<!-- Generator: Adobe Illustrator 16.0.0, SVG Export Plug-In . SVG Version: 6.00 Build 0)  -->
<!DOCTYPE svg PUBLIC "-//W3C//DTD SVG 1.1//EN" "http://www.w3.org/Graphics/SVG/1.1/DTD/svg11.dtd">
<svg version="1.1" id="Layer_1" xmlns="http://www.w3.org/2000/svg" xmlns:xlink="http://www.w3.org/1999/xlink" x="0px" y="0px"
	 width="26px" height="26px" viewBox="0 0 26 26" enable-background="new 0 0 26 26" xml:space="preserve">
<path fill="#231F20" d="M13.313,26l-0.323-0.32c-0.455-0.452-1.454-1.167-2.609-1.996c-3.72-2.667-9.341-6.697-10.182-10.901
	c-0.514-2.572,0.026-4.993,1.522-6.819C3.098,4.284,5.19,3.281,7.317,3.281c1.981,0,3.823,0.841,5.238,2.38
	c1.311-1.396,3.763-2.307,6.329-2.307c2.227,0,4.07,0.697,5.191,1.962c1.397,1.575,2.035,3.325,1.897,5.202
	c-0.366,4.989-6.082,9.793-9.862,12.971c-1.035,0.87-1.929,1.621-2.481,2.187L13.313,26z M7.317,4.183
	c-1.86,0-3.692,0.88-4.899,2.352c-1.322,1.613-1.796,3.769-1.335,6.07c0.771,3.855,6.438,7.918,9.823,10.347
	c1.007,0.722,1.841,1.319,2.389,1.788c0.574-0.544,1.354-1.199,2.234-1.939c3.667-3.082,9.206-7.738,9.544-12.347
	c0.121-1.648-0.426-3.134-1.672-4.539c-0.947-1.069-2.552-1.658-4.517-1.658c-2.508,0-4.956,0.974-5.956,2.367l-0.345,0.48
	l-0.372-0.46C10.931,5.057,9.193,4.183,7.317,4.183z"/>
</svg>
