<?xml version="1.0" encoding="utf-8"?>
<!-- Generator: Adobe Illustrator 16.0.0, SVG Export Plug-In . SVG Version: 6.00 Build 0)  -->
<!DOCTYPE svg PUBLIC "-//W3C//DTD SVG 1.1//EN" "http://www.w3.org/Graphics/SVG/1.1/DTD/svg11.dtd">
<svg version="1.1" id="Layer_1" xmlns="http://www.w3.org/2000/svg" xmlns:xlink="http://www.w3.org/1999/xlink" x="0px" y="0px"
	 width="26px" height="26px" viewBox="0 0 26 26" enable-background="new 0 0 26 26" xml:space="preserve">
<path fill="#231F20" d="M25.952,24.597l-7.484-7.485c1.505-1.81,2.41-4.133,2.41-6.669c0-5.766-4.673-10.439-10.439-10.439
	C4.674,0.003,0,4.676,0,10.442c0,5.765,4.674,10.439,10.439,10.439c2.537,0,4.86-0.905,6.669-2.41l7.484,7.486L25.952,24.597z
	 M1.099,10.442c0-5.15,4.189-9.34,9.34-9.34c5.15,0,9.34,4.19,9.34,9.34c0,5.151-4.19,9.34-9.34,9.34
	C5.288,19.782,1.099,15.593,1.099,10.442z"/>
</svg>
