<?xml version="1.0" encoding="utf-8"?>
<!-- Generator: Adobe Illustrator 16.0.0, SVG Export Plug-In . SVG Version: 6.00 Build 0)  -->
<!DOCTYPE svg PUBLIC "-//W3C//DTD SVG 1.1//EN" "http://www.w3.org/Graphics/SVG/1.1/DTD/svg11.dtd">
<svg version="1.1" id="Layer_1" xmlns="http://www.w3.org/2000/svg" xmlns:xlink="http://www.w3.org/1999/xlink" x="0px" y="0px"
	 width="26px" height="26px" viewBox="0 0 26 26" enable-background="new 0 0 26 26" xml:space="preserve">
<g>
	<path fill="#F1F2F2" d="M21.357,19.265c-0.744-1.415-4.161-2.48-6.389-3.04v-4.791h-3.938v4.791
		c-2.228,0.56-5.644,1.625-6.388,3.04c-1.058,2.695-1.527,6.742-1.527,6.742H13h9.884C22.884,26.007,22.189,22.233,21.357,19.265z"
		/>
	<path opacity="0.1" fill="#B6B6B6" d="M14.969,14.502c-0.354,1.021-1.783,1.606-2.833,1.606c-0.379,0-0.748-0.063-1.104-0.181
		v-4.494h3.938V14.502z"/>
	<path fill="#F1F2F2" d="M17.996,6.068C17.602,2.675,15.515,0.77,13,0.77c-2.514,0-4.598,1.902-4.994,5.291
		C7.169,6.24,6.622,7.186,6.769,8.254c0.124,0.916,0.719,1.639,1.429,1.829c0.67,3.279,2.566,4.663,4.803,4.663
		c2.261,0,4.174-1.26,4.825-4.682c0.684-0.212,1.25-0.919,1.371-1.81C19.341,7.201,18.812,6.267,17.996,6.068z"/>
	<path fill="#939598" d="M8.446,10.723c0.272,0.769,0.733,1.693,1.564,1.693c1.041,0,1.786-0.849,2.979-0.849
		c0.003,0,0.007,0.001,0.01,0.001s0.007-0.001,0.01-0.001c1.194,0,1.937,0.849,2.979,0.849c0.832,0,1.292-0.924,1.566-1.693
		l0.234-1.482v1.773c0,0-0.395,2.088-1.154,2.593c-0.619,0.552-2.638,1.497-3.624,1.497H13.01c-0.003,0-0.007-0.001-0.01-0.001
		s-0.007,0.001-0.01,0.001h-0.001c-0.987,0-3.006-0.945-3.624-1.497c-0.759-0.505-1.154-2.593-1.154-2.593V9.241L8.446,10.723z"/>
	<path fill="#939598" d="M15.444,1.593c0.004-0.018,0.008-0.031,0.008-0.031c-0.673-3.104-5.463-0.854-7.479,0.404
		C5.959,3.227,6.854,5.521,7.616,7.051C9.004,6.33,9.854,5.43,9.854,5.43s-0.09,1.036-0.582,1.89
		c4.446-1.641,5.796-4.643,6.103-5.514c1.463,1.173,1.823,5.199,1.823,5.199s1.029-1.845,1.253-2.969
		C18.662,2.979,16.813,1.287,15.444,1.593z"/>
	<path fill="#F1F2F2" d="M4.644,19.265c0.656-1.247,3.395-2.227,5.561-2.822c0.085,1.479,1.302,2.654,2.796,2.654
		c1.495,0,2.712-1.175,2.797-2.654c2.165,0.596,4.902,1.575,5.561,2.822c0.832,2.969,1.526,6.742,1.526,6.742H13H3.116
		C3.116,26.007,3.586,21.96,4.644,19.265z"/>
	<path fill="#808285" d="M16.62,16.68c-0.274,1.764-1.788,3.116-3.62,3.116c-1.831,0-3.346-1.353-3.62-3.116
		c0.279-0.085,0.556-0.163,0.824-0.237c0.085,1.479,1.302,2.654,2.796,2.654c1.495,0,2.712-1.175,2.797-2.654
		C16.063,16.517,16.341,16.595,16.62,16.68z"/>
	<path fill="#F1F2F2" d="M12.177,12.899c0,0,0.12-0.539,0.823-0.539c0.644,0,0.824,0.539,0.824,0.539H12.177z"/>
	<path fill-rule="evenodd" clip-rule="evenodd" fill="#939598" d="M4.644,19.265c-0.479,1.087-1.159,3.665-1.527,6.742h4.806
		C7.922,19.822,7.229,19.753,4.644,19.265z"/>
	<path fill-rule="evenodd" clip-rule="evenodd" fill="#939598" d="M21.341,19.265c0.48,1.087,1.16,3.665,1.527,6.742h-4.806
		C18.063,19.822,18.756,19.753,21.341,19.265z"/>
</g>
</svg>
