<?xml version="1.0" encoding="utf-8"?>
<!-- Generator: Adobe Illustrator 16.0.0, SVG Export Plug-In . SVG Version: 6.00 Build 0)  -->
<!DOCTYPE svg PUBLIC "-//W3C//DTD SVG 1.1//EN" "http://www.w3.org/Graphics/SVG/1.1/DTD/svg11.dtd">
<svg version="1.1" id="Layer_1" xmlns="http://www.w3.org/2000/svg" xmlns:xlink="http://www.w3.org/1999/xlink" x="0px" y="0px"
	 width="26px" height="26px" viewBox="0 0 26 26" enable-background="new 0 0 26 26" xml:space="preserve">
<path fill="#1C2021" d="M23.436,19.822c-1.371-0.566-4.629-1.678-6.633-2.263c-0.17-0.053-0.197-0.061-0.197-0.765
	c0-0.58,0.242-1.165,0.477-1.66c0.256-0.538,0.559-1.442,0.666-2.254c0.305-0.349,0.719-1.037,0.984-2.349
	c0.234-1.156,0.125-1.578-0.029-1.973c-0.016-0.042-0.033-0.083-0.045-0.124c-0.061-0.271,0.021-1.68,0.221-2.772
	c0.139-0.75-0.035-2.345-1.08-3.664c-0.656-0.834-1.918-1.857-4.222-2L12.313,0c-2.264,0.142-3.527,1.165-4.186,1.999
	C7.084,3.318,6.91,4.913,7.048,5.662C7.25,6.755,7.33,8.164,7.272,8.429C7.26,8.476,7.243,8.517,7.226,8.559
	c-0.153,0.395-0.264,0.816-0.029,1.972c0.265,1.312,0.679,2,0.984,2.349c0.107,0.812,0.41,1.716,0.667,2.254
	c0.187,0.394,0.275,0.93,0.275,1.688c0,0.703-0.026,0.711-0.187,0.761c-2.071,0.605-5.369,1.784-6.598,2.316
	c-0.973,0.414-1.212,1.155-1.212,1.825c0,0.671,0,2.653,0,3.091C1.125,25.253,1.388,26,2.336,26c0.73,0,6.575,0,9.231,0
	c0.795,0,1.308,0,1.308,0h0.229c0,0,0.522,0,1.33,0c2.664,0,8.5,0,9.23,0c0.947,0,1.211-0.747,1.211-1.186c0-0.438,0-2.42,0-3.091
	C24.875,21.054,24.408,20.236,23.436,19.822z M23.617,24.764h-9.186h-1.328h-0.229h-1.308H2.375v-3.041
	c0-0.375,0.11-0.541,0.463-0.691c1.184-0.514,4.458-1.681,6.475-2.271c1.059-0.331,1.059-1.261,1.059-1.939
	c0-0.945-0.125-1.647-0.394-2.215c-0.206-0.432-0.467-1.205-0.558-1.887l-0.049-0.368l-0.245-0.28
	c-0.134-0.154-0.472-0.635-0.704-1.784c-0.181-0.895-0.1-1.102-0.035-1.268C8.422,8.931,8.456,8.84,8.482,8.741l0.006-0.026
	l0.006-0.026C8.621,8.104,8.451,6.375,8.278,5.44C8.199,5.01,8.3,3.789,9.112,2.76c0.498-0.629,1.464-1.403,3.243-1.523l1.183-0.001
	c1.453,0.098,2.556,0.611,3.279,1.525c0.813,1.028,0.912,2.25,0.834,2.682c-0.176,0.959-0.342,2.66-0.215,3.251l0.01,0.045
	l0.012,0.045c0.021,0.063,0.043,0.127,0.068,0.19l0.012,0.031l0.002,0.002c0.068,0.18,0.15,0.384-0.031,1.28
	c-0.232,1.148-0.57,1.632-0.705,1.786l-0.242,0.279l-0.051,0.365c-0.092,0.682-0.354,1.458-0.559,1.89
	c-0.295,0.619-0.596,1.363-0.596,2.187c0,0.68,0,1.611,1.094,1.951c1.957,0.572,5.178,1.67,6.492,2.213
	c0.498,0.211,0.684,0.582,0.684,0.765L23.617,24.764z"/>
</svg>
