<?xml version="1.0" encoding="utf-8"?>
<!-- Generator: Adobe Illustrator 16.0.0, SVG Export Plug-In . SVG Version: 6.00 Build 0)  -->
<!DOCTYPE svg PUBLIC "-//W3C//DTD SVG 1.1//EN" "http://www.w3.org/Graphics/SVG/1.1/DTD/svg11.dtd">
<svg version="1.1" id="Layer_1" xmlns="http://www.w3.org/2000/svg" xmlns:xlink="http://www.w3.org/1999/xlink" x="0px" y="0px"
	 width="421.583px" height="120.178px" viewBox="0 0 421.583 120.178" enable-background="new 0 0 421.583 120.178"
	 xml:space="preserve">
<path fill="#525252" stroke="#FFFFFF" stroke-width="1.5" stroke-miterlimit="10" d="M107.465,19.046
	c5.04,0,9.296,1.924,12.772,5.771c3.005,3.276,4.503,7.224,4.503,11.841c0,2.754-0.718,5.451-2.159,8.077
	c-1.492,2.73-3.538,4.89-6.144,6.479c-2.732,1.687-5.722,2.532-8.973,2.532c-3.301,0-6.353-0.856-9.159-2.57
	c-2.707-1.664-4.79-3.886-6.257-6.666c-1.339-2.532-2.012-5.227-2.012-8.078c0-4.938,1.836-9.172,5.512-12.695
	C98.777,20.658,102.748,19.096,107.465,19.046z M107.431,28.168c-2.41,0-4.446,0.98-6.107,2.941
	c-1.242,1.441-1.863,3.215-1.863,5.323c0,2.43,0.829,4.443,2.495,6.034c1.542,1.464,3.363,2.196,5.476,2.196
	c2.383,0,4.344-0.895,5.882-2.681c1.39-1.639,2.086-3.461,2.086-5.473c0-2.606-0.97-4.74-2.903-6.404
	C111.028,28.861,109.339,28.218,107.431,28.168z"/>
<path fill="#525252" stroke="#FFFFFF" stroke-width="1.5" stroke-miterlimit="10" d="M157.621,20.011v16.571
	c0,2.731-0.157,4.772-0.463,6.125c-0.314,1.352-0.949,2.787-1.919,4.301c-1.241,1.914-2.817,3.438-4.729,4.581
	c-2.283,1.364-4.815,2.05-7.596,2.05c-3.677,0-6.9-1.18-9.682-3.534c-1.813-1.541-3.097-3.321-3.853-5.344
	c-0.758-2.023-1.137-4.696-1.137-8.025V20.017h9.346v16.569c0,2.384,0.16,4.049,0.485,4.989c0.347,0.944,0.98,1.725,1.899,2.347
	c0.919,0.619,1.924,0.93,3.018,0.93c1.067,0,2.053-0.312,2.959-0.93c0.905-0.62,1.532-1.428,1.879-2.42
	c0.298-0.917,0.445-2.593,0.445-5.025V20.016h9.346L157.621,20.011L157.621,20.011z"/>
<path fill="#525252" stroke="#FFFFFF" stroke-width="1.5" stroke-miterlimit="10" d="M191.839,52.779h-9.345V35.39
	c0-2.384-0.249-4.021-0.744-4.915c-0.397-0.769-1.031-1.402-1.899-1.898c-0.87-0.496-1.737-0.749-2.608-0.749
	c-0.893,0-1.787,0.257-2.681,0.765c-0.896,0.508-1.566,1.135-2.012,1.878c-0.299,0.572-0.493,1.141-0.576,1.715
	c-0.09,0.572-0.13,1.663-0.13,3.277v17.314H162.5V35.833c0-2.531,0.209-4.589,0.631-6.179c0.424-1.587,1.166-3.114,2.236-4.58
	c1.366-1.836,3.05-3.288,5.065-4.356c2.134-1.118,4.393-1.676,6.772-1.676c3.478,0,6.568,1.119,9.273,3.351
	c1.886,1.565,3.252,3.382,4.096,5.454c0.84,2.072,1.264,4.622,1.264,7.651L191.839,52.779L191.839,52.779z"/>
<path fill="#525252" stroke="#FFFFFF" stroke-width="1.5" stroke-miterlimit="10" d="M198.617,28.986h-5.623v-8.973h5.623V8.844
	h9.347v11.17h6.814v8.972h-6.814v6.593c0,2.259,0.049,3.733,0.147,4.431c0.099,0.693,0.334,1.34,0.71,1.937
	c0.943,1.465,2.929,2.171,5.956,2.122v8.788c-0.571,0-1.195,0-1.864,0c-6.354,0-10.741-2.604-13.145-7.818
	c-0.498-1.071-0.805-2.165-0.932-3.296c-0.122-1.128-0.196-3.48-0.22-7.055V28.986L198.617,28.986z"/>
<path fill="#525252" stroke="#FFFFFF" stroke-width="1.5" stroke-miterlimit="10" d="M250.447,52.779h-9.347V50.1
	c-2.952,2.058-5.855,3.086-8.707,3.086c-2.564,0-5.053-0.731-7.49-2.197c-2.434-1.438-4.383-3.349-5.846-5.731
	c-1.662-2.755-2.494-5.685-2.494-8.786c0-4.741,1.714-8.776,5.137-12.101c3.274-3.179,7.193-4.769,11.766-4.769
	c3.8,0,7.215,1.156,10.241,3.463c2.388,1.786,4.103,3.89,5.158,6.31c1.055,2.421,1.582,5.431,1.582,9.028V52.779L250.447,52.779z
	 M233.466,28.69c-2.403,0-4.353,0.957-5.844,2.865c-1.143,1.44-1.716,3.066-1.716,4.878c0,2.284,0.823,4.207,2.459,5.774
	c1.46,1.411,3.197,2.12,5.212,2.12c2.385,0,4.296-0.954,5.733-2.866c1.138-1.516,1.712-3.139,1.712-4.879
	c0-2.431-0.94-4.468-2.824-6.104C236.879,29.335,235.305,28.74,233.466,28.69z"/>
<path fill="#525252" stroke="#FFFFFF" stroke-width="1.5" stroke-miterlimit="10" d="M260.056,6.087
	c1.457,0,2.707,0.503,3.722,1.509c1.014,1.005,1.527,2.228,1.527,3.667c0,1.439-0.52,2.681-1.562,3.724
	c-1.05,1.043-2.275,1.564-3.689,1.564c-1.438,0-2.668-0.514-3.688-1.542c-1.012-1.028-1.523-2.278-1.523-3.745
	c0-1.439,0.502-2.653,1.51-3.647C257.354,6.623,258.591,6.114,260.056,6.087z M265.041,20.011v32.769h-9.344V20.011H265.041z"/>
<path fill="#525252" stroke="#FFFFFF" stroke-width="1.5" stroke-miterlimit="10" d="M299.601,52.779h-9.347V35.39
	c0-2.384-0.246-4.021-0.743-4.915c-0.395-0.769-1.033-1.402-1.905-1.898c-0.868-0.496-1.734-0.749-2.606-0.749
	c-0.89,0-1.787,0.257-2.68,0.765c-0.892,0.508-1.563,1.135-2.01,1.878c-0.299,0.572-0.496,1.141-0.578,1.715
	c-0.087,0.572-0.128,1.663-0.128,3.277v17.314h-9.349V35.833c0-2.531,0.214-4.589,0.636-6.179c0.425-1.587,1.168-3.114,2.239-4.58
	c1.362-1.836,3.05-3.288,5.059-4.356c2.136-1.118,4.398-1.676,6.783-1.676c3.47,0,6.562,1.119,9.267,3.351
	c1.888,1.565,3.25,3.382,4.093,5.454c0.841,2.072,1.27,4.622,1.27,7.651V52.779L299.601,52.779z"/>
<path fill="#525252" stroke="#FFFFFF" stroke-width="1.5" stroke-miterlimit="10" d="M108.616,76.35
	c-1.513-2.58-3.587-4.604-6.219-6.066c-2.481-1.392-5.063-2.086-7.746-2.086c-2.481,0-5.189,0.727-8.116,2.198l0.001-34.78
	c0-2.581-0.181-4.611-0.538-6.086c-0.361-1.477-1.036-2.935-2.03-4.377c-1.289-1.91-2.921-3.387-4.896-4.43
	c-1.973-1.046-4.104-1.564-6.384-1.564c-1.814,0-3.458,0.313-4.937,0.932c-1.476,0.62-3.097,1.688-4.86,3.202
	c-2.705-2.804-5.935-4.206-9.681-4.206c-2.313,0-4.457,0.544-6.441,1.637c-1.936,1.044-3.512,2.482-4.729,4.32
	c-0.894,1.387-1.496,2.791-1.808,4.207c-0.311,1.415-0.464,3.511-0.464,6.292v17.239h9.345V34.088c0-1.292,0.039-2.164,0.112-2.625
	c0.077-0.462,0.273-0.949,0.596-1.472c0.918-1.464,2.234-2.194,3.948-2.194c1.712,0,3.013,0.707,3.908,2.122
	c0.322,0.495,0.521,0.975,0.597,1.433c0.075,0.46,0.11,1.349,0.11,2.664v18.764h9.346V34.051c0-1.39,0.037-2.275,0.111-2.662
	c0.074-0.387,0.312-0.886,0.708-1.51c0.944-1.463,2.258-2.197,3.946-2.197c1.836,0,3.176,0.784,4.021,2.347
	c0.447,0.818,0.67,2.125,0.67,3.911v48.593c0,3.791,0.448,6.85,1.342,9.157c0.894,2.31,2.43,4.379,4.617,6.22
	c3.125,2.655,6.763,3.981,10.908,3.981c4.468,0,8.33-1.541,11.581-4.615c3.551-3.378,5.324-7.495,5.324-12.361
	C110.962,81.837,110.18,78.979,108.616,76.35z M99.755,90.128c-1.49,1.757-3.375,2.641-5.658,2.641c-1.74,0-3.303-0.56-4.694-1.678
	c-1.936-1.566-2.903-3.603-2.903-6.106c0-1.934,0.635-3.645,1.899-5.136c1.515-1.785,3.427-2.683,5.736-2.683
	c1.937,0.055,3.6,0.723,4.988,2.015c1.662,1.537,2.496,3.508,2.496,5.919C101.618,86.962,100.999,88.635,99.755,90.128z"/>
<path fill="#525252" stroke="#FFFFFF" stroke-width="1.5" stroke-miterlimit="10" d="M120.186,54.644c1.46,0,2.705,0.5,3.723,1.507
	c1.017,1.005,1.527,2.229,1.527,3.667c0,1.441-0.52,2.68-1.563,3.724c-1.047,1.042-2.274,1.563-3.688,1.563
	c-1.439,0-2.669-0.514-3.684-1.545c-1.017-1.029-1.528-2.275-1.528-3.742c0-1.44,0.499-2.658,1.506-3.647
	C117.485,55.176,118.718,54.668,120.186,54.644z M125.175,68.568v32.767h-9.346V68.568H125.175z"/>
<path fill="#525252" stroke="#FFFFFF" stroke-width="1.5" stroke-miterlimit="10" d="M141.098,57.397v43.938h-9.346V57.397H141.098z
	 M160.904,68.568l-10.5,15.973l12.141,16.797h-11.544l-6.552-9.984c-1.491-2.232-2.366-3.633-2.625-4.207
	c-0.259-0.568-0.389-1.307-0.389-2.193c0-1.761,0.99-4.235,2.976-7.41l5.621-8.973h10.875L160.904,68.568L160.904,68.568z"/>
<path fill="#525252" stroke="#FFFFFF" stroke-width="1.5" stroke-miterlimit="10" d="M194.477,90.721
	c-0.918,2.431-2.16,4.445-3.72,6.034c-3.253,3.302-7.227,4.948-11.917,4.948c-5.039,0-9.175-1.859-12.4-5.585
	c-2.805-3.232-4.208-6.97-4.208-11.243c0-4.913,1.775-9.009,5.324-12.292c3.103-2.9,6.852-4.353,11.245-4.353
	c4.817,0,8.862,1.738,12.143,5.214c2.755,2.974,4.129,6.066,4.129,9.265c0,1.761-0.654,3.16-1.972,4.202
	c-1.316,1.051-3.092,1.571-5.326,1.571h-15.785c1.389,3.031,3.624,4.539,6.702,4.539c1.887,0,3.647-0.759,5.287-2.31L194.477,90.721
	L194.477,90.721z M171.69,81.712h13.514c-1.288-3.153-3.497-4.728-6.629-4.728c-1.612,0-3.035,0.424-4.261,1.264
	C173.087,79.093,172.211,80.246,171.69,81.712z"/>
<path fill="#525252" stroke="#FFFFFF" stroke-width="1.5" stroke-miterlimit="10" d="M369.405,90.089
	c1.688,0,3.104,0.58,4.268,1.757c1.15,1.165,1.723,2.592,1.723,4.274c0,1.64-0.592,3.043-1.762,4.209
	c-1.18,1.165-2.59,1.749-4.229,1.749c-1.666,0-3.087-0.577-4.245-1.749c-1.165-1.166-1.754-2.584-1.754-4.245
	c0-1.64,0.583-3.04,1.754-4.205C366.318,90.71,367.739,90.112,369.405,90.089z"/>
<path fill="#525252" stroke="#FFFFFF" stroke-width="1.5" stroke-miterlimit="10" d="M394.813,101.333h-2.059
	c-1.958,0-3.444-0.107-4.45-0.321c-1.012-0.223-2.094-0.657-3.267-1.315c-1.901-1.091-3.398-2.563-4.492-4.407
	c-1.128-1.943-1.69-4.068-1.69-6.381c0-3.236,1.054-6.021,3.159-8.335c1.867-2.053,4.095-3.336,6.7-3.84
	c0.879-0.175,2.21-0.257,3.978-0.257h2.121v6.807h-1.804c-1.81,0-3.204,0.284-4.182,0.848c-0.845,0.469-1.52,1.141-2.019,2.003
	c-0.5,0.87-0.746,1.799-0.746,2.804c0,1.015,0.25,1.956,0.76,2.837c0.504,0.873,1.186,1.548,2.032,2.016
	c0.979,0.531,2.349,0.794,4.123,0.794h1.835V101.333L394.813,101.333z"/>
<path fill="#525252" stroke="#FFFFFF" stroke-width="1.5" stroke-miterlimit="10" d="M420.833,101.333h-7.088v-13.76
	c0-1.3-0.166-2.307-0.505-3.019c-0.3-0.645-0.778-1.166-1.429-1.571c-0.648-0.405-1.342-0.61-2.071-0.61
	c-0.776,0-1.501,0.212-2.176,0.641c-0.678,0.423-1.162,0.965-1.442,1.624c-0.303,0.68-0.453,1.617-0.453,2.825v13.874h-7.088v-32.77
	h7.088v8.699c1.771-0.979,3.5-1.467,5.197-1.467c2.311,0,4.381,0.72,6.213,2.146c1.392,1.076,2.369,2.328,2.926,3.754
	c0.555,1.437,0.828,3.39,0.828,5.876V101.333L420.833,101.333z"/>
<path fill="#525252" stroke="#FFFFFF" stroke-width="1.5" stroke-miterlimit="10" d="M215.489,119.428V89.01
	c0-5.009,0.424-8.521,1.264-10.536c1.388-3.229,3.536-5.794,6.439-7.708c2.833-1.862,5.925-2.791,9.273-2.791
	c4.913,0,9.042,1.81,12.401,5.436c2.948,3.173,4.431,6.987,4.431,11.428c0,4.789-1.716,8.878-5.135,12.25
	c-3.181,3.153-6.856,4.728-11.028,4.728c-2.555,0-5.324-0.795-8.3-2.38v19.986L215.489,119.428L215.489,119.428z M232.466,77.095
	c-2.135,0-3.957,0.822-5.475,2.457c-1.42,1.52-2.126,3.271-2.126,5.253c0,2.356,0.821,4.307,2.46,5.842
	c1.44,1.346,3.141,2.015,5.101,2.015c2.387,0,4.307-0.905,5.774-2.718c1.191-1.467,1.788-3.142,1.788-5.03
	c0-2.281-0.86-4.233-2.57-5.844C236.056,77.777,234.403,77.117,232.466,77.095z"/>
<path fill="#525252" stroke="#FFFFFF" stroke-width="1.5" stroke-miterlimit="10" d="M286.219,101.333h-9.343v-2.682
	c-2.949,2.061-5.859,3.09-8.705,3.09c-2.563,0-5.05-0.728-7.489-2.201c-2.429-1.435-4.382-3.346-5.846-5.733
	c-1.665-2.755-2.497-5.683-2.497-8.785c0-4.738,1.714-8.772,5.137-12.101c3.278-3.177,7.201-4.765,11.768-4.765
	c3.797,0,7.209,1.154,10.238,3.456c2.387,1.793,4.1,3.896,5.158,6.311c1.05,2.423,1.577,5.431,1.577,9.03L286.219,101.333
	L286.219,101.333z M269.241,77.243c-2.413,0-4.358,0.957-5.846,2.864c-1.143,1.438-1.718,3.064-1.718,4.878
	c0,2.286,0.824,4.212,2.459,5.776c1.464,1.412,3.2,2.121,5.214,2.121c2.385,0,4.295-0.955,5.733-2.862
	c1.144-1.516,1.718-3.137,1.718-4.879c0-2.426-0.945-4.465-2.831-6.105C272.651,77.89,271.077,77.294,269.241,77.243z"/>
<path fill="#525252" stroke="#FFFFFF" stroke-width="1.5" stroke-miterlimit="10" d="M301.435,101.333h-9.348V84.578
	c0-2.432,0.076-4.192,0.226-5.27c0.148-1.081,0.472-2.153,0.972-3.221c2.334-4.987,6.701-7.488,13.108-7.488
	c0.321,0,0.821,0.016,1.487,0.035v8.603l-1.118,0.036c-2.053,0.055-3.459,0.447-4.206,1.187c-0.738,0.748-1.117,2.104-1.117,4.063
	L301.435,101.333L301.435,101.333z"/>
<path fill="#525252" stroke="#FFFFFF" stroke-width="1.5" stroke-miterlimit="10" d="M316.649,77.54h-5.623v-8.973h5.623V57.4h9.342
	v11.168h6.814v8.975h-6.814v6.586c0,2.264,0.058,3.738,0.151,4.434c0.098,0.694,0.333,1.343,0.71,1.94
	c0.944,1.457,2.929,2.169,5.953,2.122v8.785c-0.571,0-1.193,0-1.862,0c-6.357,0-10.735-2.607-13.146-7.819
	c-0.495-1.069-0.802-2.165-0.928-3.296c-0.127-1.131-0.199-3.486-0.224-7.056L316.649,77.54L316.649,77.54z"/>
<path fill="#525252" stroke="#FFFFFF" stroke-width="1.5" stroke-miterlimit="10" d="M356.422,69.363v8.371
	c-2.51-1.32-4.94-1.979-7.302-1.979c-2.58,0-3.869,0.684-3.869,2.053c0,0.535,0.234,0.983,0.725,1.341
	c0.483,0.354,1.409,0.73,2.771,1.123c1.809,0.535,3.161,1.017,4.042,1.413c0.881,0.406,1.684,0.94,2.401,1.603
	c2.132,1.978,3.195,4.565,3.195,7.746c0,3.402-1.313,6.106-3.94,8.116c-2.207,1.68-5.101,2.293-8.675,2.293
	c-3.402,0-6.415-0.026-9.599-0.026l-0.004-8.972c2.329,0.622,5.942,0.716,7.308,0.665c2.949-0.1,5.533-0.52,5.533-2.036
	c0-0.709-0.259-1.231-0.784-1.561c-0.521-0.331-1.722-0.729-3.607-1.19c-2.68-0.688-4.642-1.595-5.885-2.721
	c-2.012-1.812-3.016-4.197-3.016-7.163c0-3.541,1.415-6.321,4.245-8.33c2.334-1.663,5.141-2.497,8.407-2.497
	C350.634,67.601,353.313,68.187,356.422,69.363z"/>
<path fill="#525252" stroke="#FFFFFF" stroke-width="1.5" stroke-miterlimit="10" d="M211.743,88.737h-13.015v-7.918h13.015V88.737
	L211.743,88.737z"/>
<path fill="#56B955" d="M74.916,90.245c-6.034,3.454-13.022,5.425-20.472,5.425c-22.787,0-41.261-18.471-41.261-41.259
	c0-22.786,18.473-41.259,41.261-41.259c5.813,0,11.348,1.204,16.363,3.374c1.256-0.257,2.569-0.392,3.929-0.392
	c1.685,0,3.324,0.208,4.903,0.617v-3.812c-1.094-1.449-1.595-3.338-1.226-5.263c0.135-0.706,0.377-1.363,0.707-1.962l-7.377-3.138
	c-0.971,3.229-4.247,5.263-7.629,4.617C60.706,6.539,58.407,3.39,58.745,0h-8.613c0.062,0.622,0.037,1.263-0.087,1.91
	c-0.691,3.608-4.179,5.974-7.788,5.286C39.732,6.711,37.82,4.86,37.129,2.56l-7.628,3.243c0.689,1.295,0.96,2.829,0.662,4.382
	c-0.693,3.607-4.18,5.974-7.791,5.282c-1.528-0.292-2.833-1.087-3.779-2.183l-5.768,5.739C14.75,20.511,15.79,23,15.302,25.55
	c-0.693,3.608-4.18,5.973-7.791,5.283c-0.716-0.138-1.387-0.388-1.992-0.726l-3.031,7.536c3.3,0.925,5.394,4.238,4.735,7.659
	C6.57,48.727,3.402,51.028,0,50.671v7.689c0.634-0.063,1.285-0.043,1.942,0.085c3.609,0.692,5.974,4.181,5.283,7.788
	c-0.486,2.541-2.358,4.462-4.682,5.139l3.026,7.525c1.31-0.721,2.868-1.005,4.449-0.697c3.609,0.694,5.975,4.182,5.285,7.788
	c-0.309,1.607-1.174,2.967-2.359,3.926l5.776,5.74c1.503-1.761,3.878-2.681,6.314-2.22c3.611,0.692,5.976,4.182,5.285,7.793
	c-0.125,0.653-0.342,1.256-0.635,1.826l7.51,3.189c0.937-3.275,4.237-5.354,7.652-4.696c3.438,0.653,5.747,3.856,5.359,7.274h8.471
	c-0.071-0.653-0.049-1.323,0.079-2.001c0.693-3.607,4.18-5.967,7.791-5.285c2.54,0.489,4.459,2.358,5.138,4.686l6.562-2.795
	c-0.637-1.021-1.172-2.088-1.602-3.199C75.596,97.524,75.029,94.241,74.916,90.245z"/>
</svg>
